<mxfile host="app.diagrams.net" modified="2022-02-27T22:43:46.846Z" agent="5.0 (Windows)" etag="MRm20XC7_cEqcc4o17CV" version="16.6.4" type="github">
  <diagram id="LqH0sjRRcGHtMj45-_EA" name="UI">
    <mxGraphModel dx="1571" dy="878" grid="1" gridSize="10" guides="1" tooltips="1" connect="1" arrows="1" fold="1" page="1" pageScale="1" pageWidth="827" pageHeight="1169" math="0" shadow="0">
      <root>
        <mxCell id="0" />
        <mxCell id="1" parent="0" />
        <mxCell id="yo-6rMwbI_qUXmu5xl-3-2" value="" style="rounded=0;whiteSpace=wrap;html=1;" vertex="1" parent="1">
          <mxGeometry x="40" y="40" width="360" height="1080" as="geometry" />
        </mxCell>
        <mxCell id="yo-6rMwbI_qUXmu5xl-3-4" value="Cuentas" style="ellipse;whiteSpace=wrap;html=1;aspect=fixed;" vertex="1" parent="1">
          <mxGeometry x="60" y="60" width="60" height="60" as="geometry" />
        </mxCell>
        <mxCell id="yo-6rMwbI_qUXmu5xl-3-5" value="Cotizacion" style="ellipse;whiteSpace=wrap;html=1;aspect=fixed;" vertex="1" parent="1">
          <mxGeometry x="150" y="60" width="60" height="60" as="geometry" />
        </mxCell>
        <mxCell id="yo-6rMwbI_qUXmu5xl-3-6" value="Tarifas" style="ellipse;whiteSpace=wrap;html=1;aspect=fixed;" vertex="1" parent="1">
          <mxGeometry x="240" y="60" width="60" height="60" as="geometry" />
        </mxCell>
        <mxCell id="yo-6rMwbI_qUXmu5xl-3-7" value="Info" style="ellipse;whiteSpace=wrap;html=1;aspect=fixed;" vertex="1" parent="1">
          <mxGeometry x="320" y="60" width="60" height="60" as="geometry" />
        </mxCell>
        <mxCell id="yo-6rMwbI_qUXmu5xl-3-8" value="" style="rounded=0;whiteSpace=wrap;html=1;" vertex="1" parent="1">
          <mxGeometry x="85" y="160" width="270" height="120" as="geometry" />
        </mxCell>
        <mxCell id="yo-6rMwbI_qUXmu5xl-3-10" value="AGREGAR" style="rounded=1;whiteSpace=wrap;html=1;fillColor=#dae8fc;strokeColor=#6c8ebf;" vertex="1" parent="1">
          <mxGeometry x="60" y="1040" width="320" height="60" as="geometry" />
        </mxCell>
        <mxCell id="yo-6rMwbI_qUXmu5xl-3-11" value="" style="rounded=0;whiteSpace=wrap;html=1;" vertex="1" parent="1">
          <mxGeometry x="60" y="990" width="320" height="40" as="geometry" />
        </mxCell>
      </root>
    </mxGraphModel>
  </diagram>
</mxfile>
